# AST/ASF file generated using VICON BodyLanguage
# -----------------------------------------------
:version 1.10
:name VICON
:units
  mass 1.0
  length 0.45
  angle deg
:documentation
   .ast/.asf automatically generated from VICON data using
   VICON BodyBuilder and BodyLanguage model FoxedUp or BRILLIANT.MOD
:root
   order TX TY TZ RX RY RZ
   axis XYZ
   position 0 0 0  
   orientation 0 0 0 
:bonedata
  begin
     id 1 
     name lhipjoint
     direction 0.643824 -0.71708 0.266994 
     length 2.52133 
     axis 0 0 0  XYZ
  end
  begin
     id 2 
     name lfemur
     direction 0.34202 -0.939693 0  
     length 7.51824  
     axis 0 0 20  XYZ
    dof rx ry rz
    limits (-160.0 20.0)
           (-70.0 70.0)
           (-60.0 70.0)
  end
  begin
     id 3 
     name ltibia
     direction 0.34202 -0.939693 0   
     length 7.3685   
     axis 0 0 20   XYZ
    dof rx
    limits (-10.0 170.0)
  end
  begin
     id 4 
     name lfoot
     direction 0.105419 -0.289636 0.951314   
     length 2.20972   
     axis -90 7.62852e-016 20   XYZ
    dof rx rz
    limits (-45.0 90.0)
           (-70.0 20.0)
  end
  begin
     id 5 
     name ltoes
     direction 1.53549e-011 -4.21833e-011 1   
     length 1.10139   
     axis -90 7.62852e-016 20   XYZ
    dof rx
    limits (-90.0 20.0)
  end
  begin
     id 6 
     name rhipjoint
     direction -0.608823 -0.743445 0.276811   
     length 2.43192  
     axis 0 0 0  XYZ 
  end
  begin
     id 7 
     name rfemur
     direction -0.34202 -0.939693 0   
     length 7.69715   
     axis 0 0 -20   XYZ
    dof rx ry rz
    limits (-160.0 20.0)
           (-70.0 70.0)
           (-70.0 60.0)
  end
  begin
     id 8 
     name rtibia
     direction -0.34202 -0.939693 0   
     length 7.44924   
     axis 0 0 -20   XYZ
    dof rx
    limits (-10.0 170.0)
 end
 begin
     id 9 
     name rfoot
     direction -0.103614 -0.284677 0.953007   
     length 2.22623  
     axis -90 -7.62852e-016 -20   XYZ
    dof rx rz
    limits (-45.0 90.0)
           (-20.0 70.0)
  end
  begin
     id 10 
     name rtoes
     direction -1.53537e-011 -4.22026e-011 1   
     length 1.11   
     axis -90 -7.62852e-016 -20   XYZ
    dof rx
    limits (-90.0 20.0)
  end
  begin
     id 11 
     name lowerback
     direction -0.0101212 0.99662 -0.0815298   
     length 2.08277   
     axis 0 0 0   XYZ
    dof rx ry rz
    limits (-20.0 45.0)
           (-30.0 30.0)
           (-30.0 30.0)
  end
  begin
     id 12 
     name upperback
     direction 0.024314 0.999591 -0.0150645   
     length 2.08524   
     axis 0 0 0   XYZ
    dof rx ry rz
    limits (-20.0 45.0)
           (-30.0 30.0)
           (-30.0 30.0)
  end
  begin
     id 13 
     name thorax
     direction 0.0285959 0.999323 0.0231357   
     length 2.09645   
     axis 0 0 0   XYZ
    dof rx ry rz
    limits (-20.0 45.0)
           (-30.0 30.0)
           (-30.0 30.0)
  end
  begin
     id 14 
     name lowerneck
     direction -0.065512 0.979301 0.191515   
     length 1.63798   
     axis 0 0 0   XYZ
    dof rx ry rz
    limits (-20.0 45.0)
           (-30.0 30.0)
           (-30.0 30.0)
  end
  begin
     id 15 
     name upperneck
     direction 0.0498479 0.98191 -0.182667   
     length 1.68731   
     axis 0 0 0   XYZ
    dof rx ry rz
    limits (-20.0 45.0)
           (-30.0 30.0)
           (-30.0 30.0)
  end
  begin
     id 16
     name head
     direction 0.0230358 0.996257 -0.0833175  
     length 1.69785  
     axis 0 0 0   XYZ
    dof rx ry rz
    limits (-20.0 45.0)
           (-30.0 30.0)
           (-30.0 30.0)
  end
  begin
     id 17 
     name lclavicle
     direction 0.967963 0.201165 -0.150269  
     length 3.63976  
     axis 0 0 0   XYZ
    dof ry rz
    limits (-20.0 10.0)
           (0.0 20.0)
  end
  begin
     id 18 
     name lhumerus
     direction 1 -4.48954e-011 -2.92837e-028   
     length 5.32462   
     axis 180 -30 -90   XYZ
    dof rx ry rz
    limits (-60.0 90.0)
           (-90.0 90.0)
           (-90.0 90.0)
  end
  begin
     id 19
     name lradius
     direction 1 -4.48958e-011 -6.39511e-027   
     length 3.48402   
     axis 180 -30 -90   XYZ
    dof rx
    limits (-10.0 170.0)
  end
  begin
     id 20
     name lwrist
     direction 1 -4.48975e-011 -1.1413e-026   
     length 1.74201   
     axis 6.88575e-015 90 90   XYZ
    dof ry
    limits (-180.0 0.0)
 end
  begin
     id 21 
     name lhand
     direction 1 -4.48899e-011 -2.28192e-026   
     length 0.572476   
     axis 1.45643e-014 90 90   XYZ
    dof rx rz
    limits (-90.0 90.0)
           (-45.0 45.0)
  end
  begin
     id 22 
     name lfingers
     direction 1 -4.49155e-011 -4.5684e-026   
     length 0.461545   
     axis 2.91283e-014 90 90   XYZ
    dof rx
    limits (0.0 90.0)
  end
  begin
     id 23
     name lthumb
     direction 0.707107 -6.34943e-011 0.707107   
     length 0.662688   
     axis -90 45 -2.25915e-014   XYZ
    dof rx rz
    limits (-45.0 45.0)
           (-45.0 45.0)
  end
  begin
     id 24 
     name rclavicle
     direction -0.964103 0.264019 -0.0282629   
     length 3.54491  
     axis 0 0 0   XYZ 
    dof ry rz
    limits (-10.0 20.0)
           (-20.0 0.0)
  end
  begin
     id 25 
     name rhumerus
     direction -1 -4.48964e-011 -2.45032e-027  
     length 5.33589   
     axis 180 30 90   XYZ
    dof rx ry rz
    limits (-90.0 60.0)
           (-90.0 90.0)
           (-90.0 90.0)
  end
  begin
     id 26 
     name rradius
     direction -1 -4.48987e-011 -1.55093e-027   
     length 3.64134   
     axis 180 30 90   XYZ
    dof rx
    limits (-10.0 170.0)
  end
  begin
     id 27 
     name rwrist
     direction -1 -4.4897e-011 -1.14128e-026   
     length 1.82067   
     axis 6.88575e-015 -90 -90   XYZ
    dof ry
    limits (-180.0 0.0)
  end
  begin
     id 28
     name rhand
     direction -1 -4.49021e-011 -2.28301e-026   
     length 0.734811   
     axis 1.45643e-014 -90 -90   XYZ
    dof rx rz
    limits (-90.0 90.0)
           (-45.0 45.0)
  end
  begin
     id 29
     name rfingers
     direction -1 -4.48862e-011 -4.56319e-026   
     length 0.592424   
     axis 2.91283e-014 -90 -90   XYZ
    dof rx
    limits (0.0 90.0)
  end
  begin
     id 30
     name rthumb
     direction -0.707107 -6.34978e-011 0.707107   
     length 0.850605   
     axis -90 -45 2.25915e-014   XYZ
    dof rx rz
    limits (-45.0 45.0)
           (-45.0 45.0)
  end
:hierarchy
  begin
    root lhipjoint rhipjoint lowerback
    lhipjoint lfemur
    lfemur ltibia
    ltibia lfoot
    lfoot ltoes
    rhipjoint rfemur
    rfemur rtibia
    rtibia rfoot
    rfoot rtoes
    lowerback upperback
    upperback thorax
    thorax lowerneck lclavicle rclavicle
    lowerneck upperneck
    upperneck head
    lclavicle lhumerus
    lhumerus lradius
    lradius lwrist
    lwrist lhand lthumb
    lhand lfingers
    rclavicle rhumerus
    rhumerus rradius
    rradius rwrist
    rwrist rhand rthumb
    rhand rfingers
  end

#!OML:ASF F:\VICON\USERDATA\INSTALL\rory3\rory3.ASF
:FULLY-SPECIFIED
:DEGREES
48
root 0.720678 17.9741 -0.683879 2.31252 -28.1853 1.39305
lowerback -0.0274784 -0.45116 -5.05817
upperback 0.3767 -0.594878 1.48584
thorax 0.470899 -0.319837 4.36932
lowerneck -14.2519 0.138273 -10.9293
upperneck 29.6019 2.06312 3.18505
head 11.9583 0.0314086 3.35347
rclavicle 6.13002e-014 1.23246e-014
rhumerus -33.7944 -5.39522 -79.699
rradius 54.9365
rwrist 15.2323
rhand -24.9694 14.024
rfingers 7.12502
rthumb 1.54115 -15.9502
lclavicle 6.13002e-014 1.23246e-014
lhumerus -8.86277 -29.8247 84.7017
lradius 113.991
lwrist 6.55643
lhand -23.7003 38.4821
lfingers 7.12502
lthumb 2.76676 68.4439
rfemur -9.96054 1.96376 10.9017
rtibia 23.3242
rfoot -15.5579 -11.5217
rtoes 1.44947
lfemur -2.72605 0.470613 -23.2693
ltibia 14.8651
lfoot -10.2255 5.26198
ltoes -11.577
49
root 0.719821 17.9737 -0.680384 2.26433 -28.2469 1.47891
lowerback -0.0078675 -0.447965 -5.09535
upperback 0.370249 -0.591443 1.44922
thorax 0.452858 -0.317492 4.35256
lowerneck -14.2639 0.137558 -10.862
upperneck 29.4453 2.04196 3.19281
head 11.8999 0.0379594 3.33789
rclavicle 1.71452e-014 1.51076e-014
rhumerus -34.0671 -6.17489 -79.2834
rradius 53.6438
rwrist 15.6109
rhand -24.7559 13.648
rfingers 7.12502
rthumb 1.74732 -16.3246
lclavicle 1.71452e-014 1.51076e-014
lhumerus -8.31456 -29.8722 84.2045
lradius 114.548
lwrist 6.41195
lhand -23.4978 38.9626
lfingers 7.12502
lthumb 2.96237 68.9217
rfemur -9.96696 2.01806 10.8046
rtibia 23.3407
rfoot -15.6274 -11.4645
rtoes 1.76557
lfemur -2.69012 0.517304 -23.3742
ltibia 14.8541
lfoot -10.2221 5.31875
ltoes -11.875
50
root 0.720707 17.9739 -0.67902 2.2644 -28.2972 1.44668
lowerback -0.00665535 -0.443672 -5.1245
upperback 0.399288 -0.585544 1.51008
thorax 0.482426 -0.316336 4.43221
lowerneck -14.2693 0.133322 -10.8643
upperneck 29.2384 2.02776 3.22104
head 11.8194 0.0449412 3.34133
rclavicle -4.7112e-014 3.18055e-015
rhumerus -34.3298 -6.7548 -78.8274
rradius 52.5231
rwrist 15.6385
rhand -24.6927 13.0696
rfingers 7.12502
rthumb 1.80832 -16.9024
lclavicle -4.7112e-014 3.18055e-015
lhumerus -7.62035 -29.8502 83.7419
lradius 114.951
lwrist 6.21398
lhand -23.3817 39.402
lfingers 7.12502
lthumb 3.07444 69.3595
rfemur -9.98231 2.04249 10.833
rtibia 23.369
rfoot -15.5802 -11.4494
rtoes 1.44239
lfemur -2.66007 0.596771 -23.356
ltibia 14.8363
lfoot -10.2036 5.34233
ltoes -12.2596
51
root 0.722519 17.9741 -0.678416 2.30807 -28.3298 1.36688
lowerback -0.0420758 -0.438776 -5.06496
upperback 0.450702 -0.576822 1.54846
thorax 0.554055 -0.315074 4.43791
lowerneck -14.212 0.117557 -10.8958
upperneck 28.914 1.97225 3.32822
head 11.6815 0.0455898 3.36965
rclavicle -3.43152e-014 -4.77083e-015
rhumerus -34.5111 -7.38239 -78.4062
rradius 51.3805
rwrist 15.5303
rhand -24.9377 12.9886
rfingers 7.12502
rthumb 1.57174 -16.9853
lclavicle -3.43152e-014 -4.77083e-015
lhumerus -6.82379 -29.7872 83.2184
lradius 115.257
lwrist 6.00808
lhand -23.3079 39.792
lfingers 7.12502
lthumb 3.14577 69.7485
rfemur -10.0002 2.07815 10.9094
rtibia 23.38
rfoot -15.593 -11.453
rtoes 1.2118
lfemur -2.67101 0.623883 -23.2772
ltibia 14.8414
lfoot -10.2081 5.32654
ltoes -12.2214
52
root 0.723503 17.973 -0.675168 2.29886 -28.3853 1.36306
lowerback -0.0826444 -0.422764 -4.98921
upperback 0.504662 -0.552658 1.50542
thorax 0.628393 -0.305796 4.34991
lowerneck -14.0908 0.105886 -10.9022
upperneck 28.5802 1.90116 3.45658
head 11.5287 0.044436 3.39821
rclavicle -1.33186e-014 2.38542e-015
rhumerus -34.7188 -8.20881 -77.9817
rradius 50.217
rwrist 15.7042
rhand -25.0337 13.15
rfingers 7.12502
rthumb 1.479 -16.8246
lclavicle -1.33186e-014 2.38542e-015
lhumerus -6.13008 -29.7904 82.6782
lradius 115.552
lwrist 5.80706
lhand -23.3702 40.0628
lfingers 7.12502
lthumb 3.0856 70.0202
rfemur -9.97693 2.12356 10.9067
rtibia 23.3666
rfoot -15.5783 -11.4188
rtoes 1.47507
lfemur -2.66331 0.630175 -23.2812
ltibia 14.8791
lfoot -10.2426 5.36785
ltoes -12.167
53
root 0.724775 17.9717 -0.671401 2.23134 -28.3637 1.37618
lowerback -0.0178541 -0.45303 -4.9269
upperback 0.535725 -0.595848 1.47635
thorax 0.627828 -0.327697 4.28447
lowerneck -14.0257 0.138488 -10.924
upperneck 28.327 1.91116 3.56873
head 11.4129 0.0721837 3.43688
rclavicle 4.76338e-014 -1.51076e-014
rhumerus -34.9508 -8.9516 -77.5372
rradius 49.0489
rwrist 15.9435
rhand -25.2042 13.2462
rfingers 7.12502
rthumb 1.31439 -16.7295
lclavicle 4.76338e-014 -1.51076e-014
lhumerus -5.5577 -29.8088 82.1653
lradius 115.831
lwrist 5.57933
lhand -23.6485 40.2952
lfingers 7.12502
lthumb 2.8168 70.2564
rfemur -9.89775 2.1178 10.8925
rtibia 23.358
rfoot -15.5774 -11.4474
rtoes 1.5738
lfemur -2.58733 0.56845 -23.3016
ltibia 14.8871
lfoot -10.2727 5.40951
ltoes -11.9184
54
root 0.727231 17.9716 -0.668263 2.17698 -28.2499 1.34098
lowerback 0.0950827 -0.526707 -4.82786
upperback 0.557141 -0.699686 1.48594
thorax 0.596813 -0.378872 4.2385
lowerneck -14.1269 0.167363 -10.8921
upperneck 28.2317 1.94419 3.61499
head 11.3922 0.101034 3.45188
rclavicle 5.12119e-014 -2.06736e-014
rhumerus -35.2091 -9.43485 -77.1522
rradius 48.035
rwrist 15.9677
rhand -25.5398 13.0188
rfingers 7.12502
rthumb 0.990257 -16.9587
lclavicle 5.12119e-014 -2.06736e-014
lhumerus -5.05132 -29.7622 81.7264
lradius 116.047
lwrist 5.2578
lhand -23.8676 40.5863
lfingers 7.12502
lthumb 2.60522 70.5501
rfemur -9.79949 2.0714 10.9295
rtibia 23.3622
rfoot -15.5961 -11.5396
rtoes 1.21553
lfemur -2.49339 0.386407 -23.2659
ltibia 14.8408
lfoot -10.2803 5.39483
ltoes -11.4997
55
root 0.728643 17.9726 -0.664708 2.15428 -28.2879 1.37287
lowerback 0.124891 -0.566235 -4.83966
upperback 0.571725 -0.75375 1.5042
thorax 0.601446 -0.406527 4.26398
lowerneck -14.2989 0.198061 -10.8926
upperneck 28.1924 1.99553 3.67098
head 11.4055 0.133627 3.48118
rclavicle 3.83406e-014 0
rhumerus -35.4481 -9.77555 -76.7773
rradius 47.1187
rwrist 15.9011
rhand -25.6889 12.5523
rfingers 7.12502
rthumb 0.846207 -17.4257
lclavicle 3.83406e-014 0
lhumerus -4.5727 -29.616 81.3608
lradius 116.221
lwrist 4.87637
lhand -23.8837 40.7371
lfingers 7.12502
lthumb 2.58969 70.7012
rfemur -9.8084 2.06668 10.8887
rtibia 23.3847
rfoot -15.5646 -11.5101
rtoes 1.44216
lfemur -2.43678 0.356699 -23.309
ltibia 14.7563
lfoot -10.2865 5.44966
ltoes -11.5492
56
root 0.729431 17.9742 -0.659291 2.16277 -28.4617 1.4086
lowerback 0.0931755 -0.56217 -4.89974
upperback 0.560635 -0.747099 1.54996
thorax 0.608598 -0.403626 4.34529
lowerneck -14.3985 0.224705 -10.9532
upperneck 28.1402 2.04184 3.74513
head 11.3991 0.160168 3.52521
rclavicle -3.01159e-014 9.93923e-015
rhumerus -35.7002 -10.2247 -76.3063
rradius 46.1797
rwrist 15.8146
rhand -25.6106 12.334
rfingers 7.12502
rthumb 0.921857 -17.6437
lclavicle -3.01159e-014 9.93923e-015
lhumerus -4.19546 -29.4727 81.1088
lradius 116.423
lwrist 4.54847
lhand -23.9233 40.9089
lfingers 7.12502
lthumb 2.55143 70.8734
rfemur -9.84434 2.20081 10.8003
rtibia 23.4022
rfoot -15.7495 -11.2446
rtoes 3.52156
lfemur -2.39713 0.434275 -23.369
ltibia 14.705
lfoot -10.2908 5.5623
ltoes -11.5993
57
root 0.730199 17.9736 -0.655003 2.08434 -28.6297 1.50533
lowerback 0.102284 -0.566565 -4.99625
upperback 0.565781 -0.753258 1.5722
thorax 0.611174 -0.407483 4.42308
lowerneck -14.408 0.282835 -10.9599
upperneck 28.0557 2.12958 3.7379
head 11.3606 0.201972 3.53259
rclavicle -1.04362e-015 -7.95139e-016
rhumerus -35.9086 -10.8593 -75.7998
rradius 45.1812
rwrist 15.7898
rhand -25.6204 12.4758
rfingers 7.12502
rthumb 0.912383 -17.502
lclavicle -1.04362e-015 -7.95139e-016
lhumerus -3.87804 -29.3284 80.8459
lradius 116.667
lwrist 4.31049
lhand -23.883 41.0848
lfingers 7.12502
lthumb 2.59037 71.0488
rfemur -9.82896 2.33298 10.6638
rtibia 23.4266
rfoot -15.9685 -10.9878
rtoes 5.46446
lfemur -2.31296 0.533998 -23.4837
ltibia 14.67
lfoot -10.2728 5.63486
ltoes -11.7252
